<svg width="53" height="64" viewBox="0 0 53 64" fill="none" xmlns="http://www.w3.org/2000/svg">
<path d="M4.16554 63.0417C3.94535 62.9738 3.72633 62.901 3.50497 62.8393C1.37567 62.2457 0.0147016 60.3514 0.00767423 57.914C-0.00403807 54.0131 0.00416054 50.1134 0.00416054 46.2125C0.00298931 35.6203 -0.00169561 25.027 0.000646853 14.4348C0.000646853 11.7964 1.36396 9.79838 3.61858 9.31833C4.57899 9.11347 5.59444 9.1653 6.5853 9.15913C9.50752 9.14185 12.4309 9.15172 15.3531 9.15543C16.8148 9.15666 18.2754 9.17024 19.737 9.1727C19.9865 9.1727 20.236 9.14679 20.5628 9.12951C20.5628 8.76669 20.5628 8.44583 20.5628 8.12497C20.5604 6.93408 20.5546 5.74319 20.5581 4.55353C20.5663 1.9163 22.3559 0.0170419 24.8694 0.00716919C28.2015 -0.00640572 31.5337 0.00346694 34.8658 0.00346694C39.3868 0.00346694 43.9077 0.00346694 48.4275 0.00470103C51.2666 0.00593511 53.0058 1.862 53 4.85465C52.9906 9.41212 53 13.9696 52.993 18.5271C52.9894 20.7607 51.8791 22.4465 50.0204 23.0179C49.5976 23.1475 49.142 23.1808 48.6992 23.2166C48.2963 23.2487 47.8899 23.224 47.4003 23.224C47.4003 23.5424 47.4003 23.8015 47.4003 24.0594C47.4003 31.6342 47.3711 39.2091 47.4167 46.7839C47.432 49.252 45.7208 51.0254 43.4428 50.9785C39.2743 50.8934 35.1036 50.9649 30.9328 50.9415C30.3742 50.939 30.1996 51.0982 30.209 51.698C30.2418 53.791 30.2266 55.8852 30.2196 57.9795C30.2114 60.5377 28.7895 62.3654 26.4002 62.9096C26.3123 62.9294 26.2327 62.9972 26.1495 63.0429C18.82 63.0417 11.4928 63.0417 4.16554 63.0417ZM1.74461 35.2748C1.74461 40.938 1.74461 46.6024 1.74461 52.2656C1.74461 53.0925 1.74695 53.095 2.49888 53.095C10.9341 53.0913 19.3693 53.0814 27.8045 53.0925C28.3327 53.0937 28.4967 52.9493 28.4943 52.3742C28.4733 48.0229 28.4861 43.6727 28.4873 39.3214C28.4885 34.1703 28.4838 29.018 28.5002 23.8669C28.5014 23.3733 28.3479 23.2314 27.897 23.2437C26.8265 23.2733 25.7537 23.2672 24.6832 23.2585C22.8514 23.245 21.2023 21.9738 20.7185 20.124C20.5569 19.5032 20.5499 18.8282 20.5417 18.1766C20.5358 17.7039 20.4105 17.5349 19.942 17.5361C14.1561 17.5484 8.37026 17.5398 2.58438 17.5386C1.74578 17.5386 1.74344 17.5398 1.74344 18.4073C1.74461 24.0298 1.74461 29.6523 1.74461 35.2748ZM36.7539 12.5109C36.7539 12.5134 36.7539 12.5158 36.7539 12.5183C32.1544 12.5183 27.555 12.5294 22.9568 12.5047C22.3793 12.501 22.2447 12.6874 22.2552 13.2674C22.288 15.0531 22.2611 16.8401 22.2634 18.6258C22.2657 20.3646 23.2707 21.4234 24.9209 21.4247C32.7939 21.4284 40.6669 21.4309 48.5411 21.4321C50.2851 21.4321 51.2877 20.372 51.2935 18.5209C51.2994 16.7759 51.2689 15.0297 51.3087 13.2859C51.3228 12.6565 51.1436 12.4949 50.5533 12.4973C45.9527 12.5232 41.3533 12.5109 36.7539 12.5109ZM28.4791 54.9609C28.1886 54.9461 27.9216 54.9202 27.6534 54.9202C22.9392 54.9177 18.225 54.9189 13.5108 54.9202C9.78979 54.9202 6.06879 54.9288 2.34896 54.9091C1.82425 54.9066 1.66848 55.0966 1.69542 55.6248C1.7329 56.3616 1.7083 57.102 1.71533 57.8412C1.7329 59.9392 2.93926 61.2091 4.92918 61.2152C6.64387 61.2202 8.35737 61.214 10.0721 61.214C15.1763 61.214 20.2805 61.2189 25.3836 61.2152C26.9905 61.214 28.2718 60.2415 28.451 58.6928C28.5916 57.4821 28.4791 56.2419 28.4791 54.9609ZM45.6962 27.3409C40.4948 27.3409 35.3859 27.3409 30.2711 27.3409C30.2524 27.4754 30.2324 27.5556 30.2324 27.6346C30.2278 30.3644 30.2324 33.0942 30.2125 35.824C30.209 36.309 30.4398 36.3398 30.7935 36.3386C35.079 36.3299 39.3657 36.3349 43.6512 36.3238C44.9009 36.3201 45.6728 35.4834 45.6868 34.1518C45.6962 33.2904 45.695 32.4278 45.6962 31.5651C45.6974 30.1731 45.6962 28.7798 45.6962 27.3409ZM36.7831 10.6882C41.4001 10.6882 46.0171 10.6808 50.6341 10.698C51.1307 10.7005 51.2771 10.5191 51.2595 10.023C51.2314 9.2233 51.2174 8.41991 51.2631 7.6227C51.2994 7.00072 51.1085 6.82548 50.51 6.82918C46.3802 6.85386 42.2504 6.83412 38.1207 6.83288C33.0563 6.83041 27.9907 6.83905 22.9263 6.81931C22.3922 6.81684 22.2587 7.01676 22.2821 7.53631C22.3173 8.31502 22.2903 9.09619 22.2915 9.87613C22.2927 10.6869 22.2927 10.6894 23.0505 10.6894C27.6265 10.6882 32.2048 10.6882 36.7831 10.6882ZM30.2699 49.1508C30.5124 49.1508 30.6857 49.1508 30.8602 49.1508C35.1083 49.1521 39.3563 49.1558 43.6044 49.1558C44.929 49.1558 45.6892 48.3462 45.695 46.9295C45.6997 45.6769 45.6939 44.4255 45.6962 43.1729C45.6974 42.2609 45.7009 42.2585 44.8553 42.2585C40.257 42.2572 35.6588 42.2585 31.0605 42.2585C30.9434 42.2585 30.8263 42.2696 30.7103 42.2597C30.3285 42.2264 30.2114 42.4103 30.2149 42.8052C30.2301 44.7353 30.2219 46.6641 30.2254 48.5943C30.2242 48.751 30.2488 48.9102 30.2699 49.1508ZM22.3278 4.95461C22.5621 4.97065 22.8092 5.0015 23.0563 5.0015C25.9586 5.0015 28.8609 4.99533 31.7632 4.99533C37.9965 4.99533 44.2286 5.00027 50.4619 4.9978C51.3357 4.9978 51.3907 4.91018 51.2314 3.99202C50.9902 2.59998 50.0216 1.80029 48.5481 1.80029C40.6986 1.79782 32.849 1.79906 24.9994 1.79906C24.8823 1.79906 24.7651 1.79659 24.6492 1.80523C23.0997 1.91136 22.076 3.27132 22.3278 4.95461ZM20.5241 15.7035C20.537 15.4098 20.5522 15.2111 20.5534 15.0112C20.5581 13.9239 20.5604 12.8367 20.5604 11.7495C20.5604 10.9436 20.5593 10.9411 19.7968 10.9399C15.0849 10.9387 10.3731 10.9374 5.66003 10.9436C5.17397 10.9436 4.68557 10.9621 4.20419 11.0251C2.99431 11.183 2.00696 12.174 1.802 13.4451C1.72704 13.9066 1.71767 14.383 1.7083 14.8532C1.69073 15.6998 1.69893 15.7035 2.49537 15.7035C7.94744 15.7047 13.3984 15.7035 18.8504 15.7035C19.3915 15.7035 19.9326 15.7035 20.5241 15.7035ZM45.6517 37.8824C44.6269 37.9799 43.7098 38.1342 42.7904 38.1416C39.0506 38.1737 35.3097 38.1576 31.57 38.1638C30.2723 38.1663 30.2723 38.1724 30.2641 39.5706C30.2594 40.4197 30.2594 40.4222 31.05 40.4222C35.647 40.4234 40.2441 40.4222 44.8412 40.4222C44.997 40.4222 45.168 40.4592 45.3038 40.4024C45.4385 40.3469 45.6318 40.2 45.6353 40.0865C45.6657 39.3164 45.6517 38.5414 45.6517 37.8824ZM37.9778 23.2635C37.9778 23.2598 37.9778 23.2561 37.9778 23.2524C35.8356 23.2524 33.6934 23.2524 31.5524 23.2524C30.2488 23.2524 30.2488 23.2524 30.2524 24.6074C30.2547 25.4552 30.2547 25.4466 31.0617 25.4453C35.4432 25.4429 39.8248 25.454 44.2052 25.4404C45.9082 25.4354 45.6271 25.7403 45.6657 23.8731C45.6763 23.3758 45.4901 23.2524 45.0462 23.2548C42.6908 23.2733 40.3343 23.2635 37.9778 23.2635Z" fill="black"/>
<path d="M1.74438 35.2748C1.74438 29.6524 1.74438 24.0299 1.74438 18.4074C1.74438 17.5398 1.74673 17.5386 2.58533 17.5386C8.37121 17.5411 14.1571 17.5485 19.943 17.5361C20.4126 17.5349 20.5368 17.7052 20.5426 18.1766C20.5497 18.8282 20.5567 19.5033 20.7195 20.124C21.2032 21.9739 22.8511 23.2438 24.6841 23.2586C25.7558 23.2672 26.8275 23.2734 27.898 23.2438C28.3489 23.2314 28.5023 23.3734 28.5011 23.867C28.4847 29.018 28.4894 34.1703 28.4883 39.3214C28.4871 43.6728 28.4742 48.0229 28.4953 52.3743C28.4976 52.9506 28.3337 53.0938 27.8054 53.0925C19.3702 53.0814 10.935 53.0913 2.49983 53.095C1.7479 53.095 1.74556 53.0925 1.74556 52.2657C1.74438 46.6013 1.74438 40.9381 1.74438 35.2748ZM26.448 35.3477C26.5733 29.0711 21.5241 23.572 15.5403 23.3783C9.35387 23.1784 4.1782 28.1974 3.82683 34.527C3.43213 41.6538 8.69329 47.1048 14.9348 47.2405C21.2032 47.3775 26.3133 42.0981 26.448 35.3477Z" fill="#57A4FF"/>
<path d="M36.7535 12.5107C41.3529 12.5107 45.9524 12.5218 50.5506 12.4971C51.1409 12.4934 51.3201 12.6563 51.3061 13.2857C51.2662 15.0295 51.2967 16.7757 51.2908 18.5207C51.285 20.3706 50.2824 21.4319 48.5384 21.4319C40.6654 21.4319 32.7924 21.4294 24.9182 21.4245C23.268 21.4233 22.2631 20.3644 22.2607 18.6256C22.2584 16.8399 22.2865 15.0529 22.2525 13.2672C22.242 12.6872 22.3767 12.5021 22.9541 12.5045C27.5535 12.5292 32.1529 12.5181 36.7512 12.5181C36.7535 12.5156 36.7535 12.5132 36.7535 12.5107ZM45.7017 17.4668C46.538 17.4668 47.3731 17.4767 48.2093 17.4631C48.8195 17.4544 49.1393 17.1595 49.1604 16.6313C49.1815 16.071 48.8594 15.7206 48.2257 15.7132C46.5544 15.6946 44.883 15.6959 43.2117 15.7132C42.5956 15.7193 42.3016 16.0328 42.297 16.5807C42.2923 17.1509 42.605 17.452 43.2527 17.4631C44.069 17.4767 44.8854 17.4668 45.7017 17.4668ZM27.4012 17.4668C27.4012 17.4705 27.4012 17.4754 27.4012 17.4791C28.2387 17.4791 29.0773 17.4902 29.9147 17.4754C30.5202 17.4643 30.8974 17.0966 30.8857 16.5733C30.8739 16.071 30.5097 15.7107 29.9381 15.707C28.2621 15.6959 26.5872 15.6971 24.9112 15.7144C24.3361 15.7206 23.9707 16.0858 23.9625 16.5795C23.9543 17.0941 24.3408 17.4544 24.9463 17.4631C25.765 17.4767 26.5837 17.4668 27.4012 17.4668ZM36.7605 17.4668C36.7605 17.4705 36.7605 17.4754 36.7605 17.4791C37.598 17.4791 38.4342 17.4902 39.2717 17.4754C39.869 17.4655 40.1946 17.1509 40.2063 16.619C40.2192 16.0883 39.8971 15.7255 39.3115 15.7193C37.6179 15.6996 35.9255 15.7008 34.2319 15.7181C33.6533 15.7243 33.3066 16.0945 33.3124 16.6029C33.3195 17.1126 33.672 17.4544 34.2494 17.4643C35.0869 17.4767 35.9243 17.4668 36.7605 17.4668Z" fill="white"/>
<path d="M28.479 54.9608C28.479 56.2418 28.5902 57.4821 28.4509 58.689C28.2717 60.2378 26.9892 61.2102 25.3834 61.2114C20.2792 61.2164 15.175 61.2114 10.0719 61.2102C8.35725 61.2102 6.64374 61.2164 4.92906 61.2114C2.93914 61.2053 1.73277 59.9366 1.7152 57.8375C1.70935 57.0983 1.73277 56.3578 1.69529 55.6211C1.66835 55.0929 1.82413 54.9028 2.34884 54.9053C6.06983 54.925 9.79083 54.9164 13.5107 54.9164C18.2249 54.9164 22.9391 54.9152 27.6533 54.9164C27.9215 54.9201 28.1885 54.946 28.479 54.9608ZM15.0754 58.7174C15.0754 58.7161 15.0754 58.7137 15.0754 58.7124C16.0077 58.7124 16.9412 58.7211 17.8735 58.7087C18.4603 58.7013 18.78 58.3792 18.7835 57.8375C18.787 57.3068 18.4614 56.9317 17.8922 56.9255C16.0464 56.9045 14.2005 56.9033 12.3547 56.9193C11.7737 56.9243 11.4106 57.3438 11.4364 57.8794C11.4622 58.3928 11.8147 58.71 12.3933 58.7149C13.2881 58.7223 14.1818 58.7174 15.0754 58.7174Z" fill="white"/>
<path d="M45.6961 27.3408C45.6961 28.781 45.6973 30.173 45.6961 31.5651C45.6949 32.4277 45.6973 33.2891 45.6867 34.1517C45.6715 35.4833 44.9008 36.3212 43.6511 36.3237C39.3656 36.3348 35.0789 36.3299 30.7934 36.3385C30.4385 36.3398 30.2089 36.3077 30.2124 35.8239C30.2324 33.0941 30.2277 30.3643 30.2324 27.6345C30.2324 27.5543 30.2534 27.4753 30.271 27.3408C35.3858 27.3408 40.4947 27.3408 45.6961 27.3408Z" fill="white"/>
<path d="M36.783 10.688C32.2047 10.688 27.6275 10.688 23.0492 10.688C22.2926 10.688 22.2914 10.6855 22.2902 9.87472C22.289 9.09478 22.316 8.3136 22.2808 7.5349C22.2574 7.01411 22.3909 6.81543 22.925 6.81789C27.9894 6.83764 33.055 6.829 38.1194 6.83147C42.2491 6.83394 46.3789 6.85245 50.5087 6.82777C51.1072 6.82406 51.2981 7.00054 51.2618 7.62128C51.2161 8.4185 51.229 9.22189 51.2582 10.0216C51.2758 10.5177 51.1294 10.6991 50.6328 10.6966C46.017 10.6806 41.4 10.688 36.783 10.688Z" fill="#57A4FF"/>
<path d="M30.2697 49.1508C30.2486 48.9114 30.224 48.7522 30.224 48.593C30.2205 46.6629 30.2287 44.734 30.2135 42.8039C30.2099 42.4103 30.3271 42.2264 30.7089 42.2585C30.8248 42.2683 30.9431 42.2572 31.0591 42.2572C35.6573 42.2572 40.2556 42.2572 44.8538 42.2572C45.6995 42.2572 45.6971 42.2597 45.6948 43.1717C45.6924 44.4243 45.6995 45.6756 45.6936 46.9282C45.6877 48.345 44.9276 49.1545 43.603 49.1545C39.3549 49.1545 35.1069 49.152 30.8588 49.1496C30.6855 49.1508 30.5121 49.1508 30.2697 49.1508Z" fill="white"/>
<path d="M22.3276 4.9542C22.0747 3.27091 23.0995 1.91095 24.649 1.80482C24.765 1.79741 24.8821 1.79865 24.9992 1.79865C32.8488 1.79865 40.6984 1.79741 48.548 1.79988C50.0214 1.79988 50.99 2.59957 51.2313 3.99161C51.3905 4.91101 51.3355 4.99739 50.4618 4.99739C44.2285 4.99986 37.9964 4.99492 31.7631 4.99492C28.8608 4.99492 25.9585 5.00109 23.0561 5.00109C22.8102 5.00109 22.5631 4.96901 22.3276 4.9542Z" fill="white"/>
<path d="M20.5238 15.7035C19.9323 15.7035 19.3912 15.7035 18.8501 15.7035C13.398 15.7035 7.94709 15.7047 2.49502 15.7035C1.69975 15.7035 1.69038 15.6998 1.70795 14.8532C1.71849 14.383 1.72786 13.9079 1.80165 13.4451C2.00661 12.1753 2.99396 11.1843 4.20384 11.0251C4.68522 10.9622 5.17362 10.9436 5.65968 10.9436C10.3715 10.9375 15.0834 10.9399 19.7964 10.9399C20.5589 10.9399 20.5601 10.9424 20.5601 11.7495C20.5589 12.8367 20.5577 13.924 20.553 15.0112C20.5519 15.2111 20.5366 15.4098 20.5238 15.7035Z" fill="white"/>
<path d="M45.6515 37.8823C45.6515 38.5413 45.6655 39.3151 45.6363 40.0876C45.6316 40.2011 45.4383 40.348 45.3048 40.4035C45.1689 40.4591 44.9979 40.4233 44.8422 40.4233C40.2451 40.4233 35.648 40.4245 31.0509 40.4233C30.2592 40.4233 30.2592 40.4208 30.2651 39.5718C30.2732 38.1723 30.2732 38.1674 31.571 38.1649C35.3107 38.1588 39.0516 38.1748 42.7913 38.1427C43.7096 38.1353 44.6278 37.9798 45.6515 37.8823Z" fill="#57A4FF"/>
<path d="M37.9777 23.2635C40.3342 23.2635 42.6908 23.2734 45.0461 23.2549C45.49 23.2512 45.6762 23.3746 45.6657 23.8732C45.6259 25.7404 45.9081 25.4355 44.2052 25.4405C39.8236 25.4528 35.4432 25.4429 31.0616 25.4454C30.2546 25.4454 30.2546 25.4553 30.2523 24.6075C30.2488 23.2524 30.2488 23.2524 31.5524 23.2524C33.6945 23.2524 35.8367 23.2524 37.9777 23.2524C37.9777 23.2561 37.9777 23.2598 37.9777 23.2635Z" fill="#57A4FF"/>
<path d="M26.448 35.3477C26.3133 42.0981 21.2032 47.3776 14.9359 47.2406C8.69329 47.1048 3.43329 41.6539 3.828 34.527C4.17819 28.1974 9.35503 23.1784 15.5415 23.3783C21.5241 23.5721 26.5733 29.0712 26.448 35.3477ZM24.6993 35.3712C24.7227 29.8116 20.4653 25.2418 15.2264 25.2035C9.97344 25.1653 5.57079 29.6907 5.54268 35.1589C5.5134 40.8443 9.8083 45.4215 15.169 45.4178C20.3705 45.4154 24.6759 40.8764 24.6993 35.3712Z" fill="black"/>
<path d="M45.7019 17.467C44.8856 17.467 44.0692 17.4769 43.2529 17.4645C42.6052 17.4547 42.2925 17.1523 42.2972 16.5822C42.3019 16.0342 42.5958 15.7208 43.2119 15.7146C44.8832 15.6973 46.5546 15.6961 48.2259 15.7146C48.8584 15.7208 49.1816 16.0725 49.1606 16.6328C49.1406 17.1609 48.8209 17.4547 48.2095 17.4645C47.3733 17.4769 46.537 17.467 45.7019 17.467Z" fill="black"/>
<path d="M27.4013 17.4669C26.5826 17.4669 25.7651 17.4756 24.9464 17.4645C24.3408 17.4558 23.9543 17.0955 23.9625 16.5809C23.9707 16.086 24.3362 15.7207 24.9112 15.7158C26.5873 15.6985 28.2621 15.6973 29.9381 15.7084C30.5097 15.7121 30.874 16.0724 30.8857 16.5747C30.8974 17.0979 30.5202 17.4657 29.9147 17.4768C29.0773 17.4916 28.2387 17.4805 27.4013 17.4805C27.4013 17.4756 27.4013 17.4719 27.4013 17.4669Z" fill="black"/>
<path d="M36.7607 17.4668C35.9233 17.4668 35.087 17.4779 34.2496 17.4631C33.6722 17.4532 33.3196 17.1114 33.3126 16.6017C33.3056 16.0945 33.6534 15.723 34.232 15.7169C35.9256 15.6996 37.6181 15.6984 39.3117 15.7181C39.8973 15.7255 40.2182 16.0871 40.2065 16.6178C40.1936 17.1496 39.8692 17.4643 39.2718 17.4742C38.4356 17.489 37.5981 17.4779 36.7607 17.4779C36.7607 17.4742 36.7607 17.4705 36.7607 17.4668Z" fill="black"/>
<path d="M15.0752 58.7178C14.1815 58.7178 13.2879 58.7239 12.3942 58.7153C11.8145 58.7104 11.4619 58.3932 11.4373 57.8798C11.4116 57.3442 11.7746 56.9246 12.3556 56.9197C14.2014 56.9037 16.0473 56.9061 17.8931 56.9259C18.4612 56.9321 18.788 57.306 18.7845 57.8379C18.7809 58.3796 18.4612 58.7017 17.8744 58.7091C16.9421 58.7215 16.0098 58.7128 15.0763 58.7128C15.0752 58.7141 15.0752 58.7165 15.0752 58.7178Z" fill="black"/>
<path d="M24.6995 35.371C24.6761 40.8762 20.3706 45.4152 15.1692 45.4176C9.80849 45.4213 5.51359 40.8441 5.54287 35.1587C5.57098 29.6917 9.97364 25.1651 15.2266 25.2034C20.4655 25.2416 24.7229 29.8114 24.6995 35.371ZM13.7122 34.7798C13.0575 33.9691 12.4719 33.2298 11.871 32.5054C11.3112 31.8304 10.9106 31.8094 10.2992 32.4351C9.51686 33.236 8.75087 34.0542 7.98372 34.8699C7.33368 35.5598 7.33251 35.9461 7.97786 36.6297C9.35171 38.0847 10.7279 39.5372 12.1076 40.9861C13.3901 42.3324 13.4135 42.3312 14.696 40.9799C17.2154 38.3229 19.7382 35.6709 22.247 33.0028C22.9462 32.2599 22.9368 31.9402 22.2716 31.2516C21.5489 30.5038 20.8157 29.7682 20.0767 29.0389C19.5344 28.5033 19.08 28.5243 18.574 29.1068C17.719 30.0903 16.8757 31.085 16.0277 32.076C15.2711 32.9571 14.5168 33.8395 13.7122 34.7798Z" fill="white"/>
<path d="M13.712 34.7798C14.5166 33.8394 15.2709 32.9571 16.0251 32.0759C16.8731 31.0849 17.7164 30.0903 18.5714 29.1067C19.0774 28.5242 19.5318 28.5032 20.0741 29.0388C20.8131 29.7682 21.5475 30.5037 22.269 31.2515C22.9342 31.9402 22.9436 32.2586 22.2444 33.0027C19.7356 35.6708 17.2128 38.3241 14.6935 40.9798C13.4121 42.3311 13.3875 42.3324 12.105 40.986C10.7253 39.5372 9.34913 38.0847 7.97527 36.6297C7.32993 35.946 7.3311 35.5597 7.98113 34.8699C8.74946 34.0541 9.51544 33.2347 10.2967 32.435C10.908 31.8094 11.3074 31.8316 11.8684 32.5054C12.4728 33.2285 13.0572 33.969 13.712 34.7798ZM11.0474 34.354C10.5696 34.86 10.1362 35.3191 9.79303 35.6807C11.0006 36.9913 12.214 38.308 13.3372 39.5273C15.7042 37.0345 18.0795 34.5354 20.3809 32.1129C20.1127 31.7625 19.7871 31.3379 19.4299 30.8715C19.1488 31.1911 18.9356 31.4256 18.7283 31.6674C17.3311 33.2964 15.9385 34.9303 14.5377 36.5556C13.9111 37.2825 13.4437 37.2825 12.8394 36.5581C12.2374 35.8362 11.6518 35.0982 11.0474 34.354Z" fill="black"/>
<path d="M11.0474 34.3544C11.6518 35.0998 12.2374 35.8378 12.8406 36.5597C13.4449 37.2841 13.9134 37.2841 14.5388 36.5572C15.9396 34.932 17.3322 33.298 18.7295 31.669C18.9368 31.4284 19.1488 31.1927 19.4311 30.873C19.7883 31.3395 20.1139 31.7641 20.3821 32.1145C18.0807 34.537 15.7066 37.0361 13.3383 39.5289C12.2151 38.3096 11.0017 36.9929 9.79419 35.6823C10.1362 35.3182 10.5695 34.8591 11.0474 34.3544Z" fill="#539EF6"/>
</svg>
