<?xml version="1.0" encoding="utf-8"?>
<!-- Generator: Adobe Illustrator 24.1.1, SVG Export Plug-In . SVG Version: 6.00 Build 0)  -->
<svg version="1.1" id="Layer_1" xmlns="http://www.w3.org/2000/svg" xmlns:xlink="http://www.w3.org/1999/xlink" x="0px" y="0px"
	 viewBox="0 0 184 28" style="enable-background:new 0 0 184 28;" xml:space="preserve">
<style type="text/css">
	.st0{fill:#1D1D1E;}
</style>
<g>
	<g>
		<path class="st0" d="M32.9,12H20.3l-2,4H30c-1.1,4.6-6,8-11.8,8c-6.6,0-12-4.5-12-10s5.4-10,12-10c4.6,0,8.6,2.2,10.6,5.3h5.7
			C32.2,3.9,25.8,0,18.3,0C8.7,0,0.9,6.3,0.9,14s7.8,14,17.3,14c8.7,0,16-5.2,17.1-12h-4.5L32.9,12z"/>
		<path class="st0" d="M66.3,14.7L66.3,14.7c-0.3,5.2-4.4,9.3-9.3,9.3s-9-4.1-9.3-9.3h0V0h-5.3v14.7h0C42.6,22.1,49,28,56.9,28
			c7.9,0,14.3-5.9,14.6-13.3h0V0h-5.3C66.2,0,66.2,14.7,66.3,14.7z"/>
		<path class="st0" d="M166.2,24c-6.6,0-12-4.5-12-10s5.4-10,12-10c5.2,0,9.7,2.8,11.3,6.7h5.5C181.2,4.6,174.4,0,166.2,0
			c-9.6,0-17.3,6.3-17.3,14s7.8,14,17.3,14c8.1,0,15-4.5,16.8-10.7h-5.5C175.9,21.2,171.5,24,166.2,24"/>
		<polygon class="st0" points="127.3,0 115.6,28 121.4,28 124.8,20 131.6,20 133.6,16 126.4,16 130.3,6.8 139.1,28 144.9,28 
			133.1,0 		"/>
		<polygon class="st0" points="103.6,0 103.6,0 103.6,0 103.6,0 94.3,11.1 84.9,0 84.9,0 79.6,0 79.6,28 84.9,28 84.9,6.2 
			94.3,17.4 103.6,6.3 103.6,28 108.9,28 108.9,0 103.6,0 		"/>
	</g>
</g>
</svg>
