<svg width="71" height="70" viewBox="0 0 71 70" fill="none" xmlns="http://www.w3.org/2000/svg">
<path d="M50.2667 5.45586C54.3282 5.45586 58.1467 7.01759 61.0188 9.85328C63.8909 12.689 65.4727 16.459 65.4727 20.469V49.5296C65.4727 53.5397 63.8909 57.3097 61.0188 60.1454C58.1467 62.981 54.3282 64.5428 50.2667 64.5428H20.7319C16.6704 64.5428 12.8519 62.981 9.97984 60.1454C7.10774 57.3097 5.52594 53.541 5.52594 49.531V20.469C5.52594 16.459 7.10774 12.689 9.97984 9.85328C12.8519 7.01759 16.6704 5.45586 20.7319 5.45586H50.2667ZM50.2667 0H20.7319C9.28219 0 0 9.16448 0 20.469V49.5296C0 60.8342 9.28219 69.9986 20.7319 69.9986H50.2667C61.7164 69.9986 70.9986 60.8342 70.9986 49.5296V20.469C71 9.16448 61.7178 0 50.2667 0Z" fill="#1976D2"/>
<path d="M51.452 15.4126V24.2156H46.5947C45.1883 24.2156 44.2503 24.6057 43.782 25.3832C43.4836 25.8456 43.3344 26.7199 43.3344 28.002V32.0093H51.5791L50.5886 40.8751H43.3344V66.4017H32.661V40.8751H27.4197V32.0093H32.661V26.7403C32.661 21.2926 34.5357 17.8214 38.2851 16.3278C39.8406 15.7181 41.5233 15.4126 43.3344 15.4126H51.452Z" fill="#1976D2"/>
</svg>
