<svg width="70" height="70" viewBox="0 0 70 70" fill="none" xmlns="http://www.w3.org/2000/svg">
<path d="M49.5587 5.45586C53.5631 5.45586 57.3277 7.01759 60.1594 9.85328C62.991 12.689 64.5505 16.459 64.5505 20.469V49.5296C64.5505 53.5397 62.991 57.3097 60.1594 60.1454C57.3277 62.981 53.5631 64.5428 49.5587 64.5428H20.4399C16.4356 64.5428 12.6709 62.981 9.83928 60.1454C7.00763 57.3097 5.44811 53.541 5.44811 49.531V20.469C5.44811 16.459 7.00763 12.689 9.83928 9.85328C12.6709 7.01759 16.4356 5.45586 20.4399 5.45586H49.5587ZM49.5587 0H20.4399C9.15146 0 0 9.16448 0 20.469V49.5296C0 60.8342 9.15146 69.9986 20.4399 69.9986H49.5587C60.8472 69.9986 69.9986 60.8342 69.9986 49.5296V20.469C70 9.16448 60.8485 0 49.5587 0Z" fill="#00AEEF"/>
<path d="M23.5878 21.3515C23.5959 22.148 24.1721 22.7959 24.9825 22.8873C25.293 22.9228 25.609 22.9023 25.9236 22.9037C27.2966 22.905 28.6681 22.9037 30.1514 22.9037C29.9416 23.2651 29.8081 23.512 29.661 23.7493C27.7774 26.7678 25.8978 29.7876 24.0045 32.7992C23.6341 33.3898 23.4284 33.9818 23.7893 34.6392C24.1625 35.3185 24.7782 35.4931 25.5123 35.4876C27.919 35.4699 30.3243 35.4849 32.7311 35.4794C33.8942 35.4767 34.5848 34.8957 34.5943 33.9272C34.6052 32.922 33.9133 32.3396 32.6916 32.3369C31.1797 32.3328 29.6692 32.3355 27.9994 32.3355C28.98 30.7628 29.864 29.3457 30.7479 27.9285C31.9247 26.0422 33.1179 24.1653 34.2729 22.2653C34.9648 21.1264 34.3614 19.8047 33.1002 19.7802C30.4074 19.7284 27.712 19.7434 25.0193 19.7788C24.1734 19.7897 23.5782 20.5195 23.5878 21.3515Z" fill="#00AEEF"/>
<path d="M42.1549 35.0511C42.385 34.9624 42.7582 34.9842 42.9557 35.1165C43.5291 35.5025 44.0971 35.6335 44.7196 35.3143C45.342 34.9951 45.5844 34.4468 45.5804 33.7621C45.5735 32.5059 45.5776 31.2511 45.5776 29.9948C45.5763 28.6868 45.6008 27.3788 45.5695 26.0707C45.5422 24.94 44.4294 24.0289 43.5686 24.5758C42.7133 25.12 42.0622 24.8909 41.2927 24.6399C40.9753 24.5363 40.628 24.4967 40.2916 24.4844C38.0729 24.3999 35.9999 25.6929 35.0819 27.717C34.1584 29.7534 34.5629 32.124 36.1129 33.7607C37.6792 35.4193 39.9783 35.894 42.1549 35.0511ZM40.1091 27.6229C41.4003 27.6379 42.4382 28.6923 42.4341 29.9867C42.43 31.3083 41.3363 32.3695 40.0151 32.3354C38.7307 32.3013 37.7065 31.2251 37.7296 29.9321C37.7528 28.6404 38.8179 27.6079 40.1091 27.6229Z" fill="#00AEEF"/>
<path d="M57.3413 35.4793C60.3486 35.4847 62.8398 32.9982 62.8439 29.988C62.848 26.9722 60.3704 24.483 57.3617 24.4775C54.3516 24.4735 51.8632 26.9559 51.8591 29.9675C51.855 32.9805 54.3353 35.4738 57.3413 35.4793ZM57.3154 27.6228C58.6107 27.6037 59.6758 28.6294 59.7044 29.9211C59.733 31.2469 58.672 32.3353 57.3508 32.334C56.0624 32.334 55.0095 31.2865 55.0013 29.9948C54.9904 28.7017 56.0256 27.6406 57.3154 27.6228Z" fill="#00AEEF"/>
<path d="M47.1478 33.5849C47.1491 34.8057 47.7321 35.5 48.7345 35.489C49.7002 35.4795 50.2845 34.788 50.2859 33.6272C50.29 29.1002 50.29 24.5746 50.2859 20.0476C50.2845 18.8814 49.7029 18.1926 48.7372 18.1803C47.7389 18.1681 47.1505 18.865 47.1478 20.0831C47.1437 22.3077 47.1464 24.531 47.1464 26.7556C47.1464 29.032 47.1437 31.3085 47.1478 33.5849Z" fill="#00AEEF"/>
<path d="M65.0218 48.7112C64.9973 48.7303 64.9741 48.7466 64.9469 48.7616C58.9935 52.1947 52.4503 53.6965 45.5026 53.2245C42.0349 52.9899 38.751 52.2657 35.7464 51.0736C33.2539 50.0847 30.7341 50.1392 28.0428 51.2372C27.1547 51.6 26.2476 51.9519 25.35 52.297C25.9384 50.8744 26.2177 49.3781 26.1972 47.7768C26.1782 46.1933 25.6361 44.8825 24.5424 43.7709C20.4822 39.6408 17.9842 34.8192 17.1193 29.4397C15.9875 22.3921 17.5565 15.8778 21.7843 10.0755C22.7322 8.7743 23.86 7.61766 25.0531 6.39282C25.3964 6.04092 25.7396 5.68765 26.0787 5.33302L27.7241 3.60352H20.2547L19.9483 3.98952C19.7521 4.23639 19.556 4.48054 19.3612 4.72333C18.6366 5.62764 17.8875 6.56332 17.2092 7.53173C8.95261 19.3423 9.8747 35.1274 19.4525 45.9178C19.5383 46.0132 19.62 46.1142 19.7017 46.2137C19.9319 46.4934 20.1934 46.8112 20.5326 47.0812C20.8921 47.3663 21.1087 47.7223 20.9957 48.5257C20.632 51.1281 19.7031 52.5425 17.8916 53.2586C16.7965 53.691 16.1918 54.6976 16.3144 55.8843C16.4369 57.0709 17.216 57.9288 18.3996 58.1784C21.249 58.7786 24.1133 58.5058 26.9137 57.3682C27.8303 56.9959 28.7442 56.5908 29.6282 56.2007C29.8829 56.0875 30.1376 55.9756 30.3923 55.8638C31.4369 55.4041 32.4789 55.3891 33.574 55.8161C38.1872 57.6124 42.991 58.5167 47.9039 58.5167C49.1501 58.5167 50.4045 58.458 51.6617 58.3421C56.5854 57.8852 61.2926 56.5253 65.6551 54.298L65.7587 54.2448C65.8731 54.1861 65.9861 54.1275 66.1019 54.0715L66.6767 53.7919V47.3881L65.0218 48.7112Z" fill="#00AEEF"/>
</svg>
