<svg width="70" height="70" viewBox="0 0 70 70" fill="none" xmlns="http://www.w3.org/2000/svg">
<path d="M49.5587 5.45586C53.5631 5.45586 57.3277 7.01759 60.1594 9.85328C62.991 12.689 64.5505 16.459 64.5505 20.469V49.5296C64.5505 53.5397 62.991 57.3097 60.1594 60.1454C57.3277 62.981 53.5631 64.5428 49.5587 64.5428H20.4399C16.4356 64.5428 12.6709 62.981 9.83928 60.1454C7.00763 57.3097 5.44811 53.541 5.44811 49.531V20.469C5.44811 16.459 7.00763 12.689 9.83928 9.85328C12.6709 7.01759 16.4356 5.45586 20.4399 5.45586H49.5587ZM49.5587 0H20.4399C9.15146 0 0 9.16448 0 20.469V49.5296C0 60.8342 9.15146 69.9986 20.4399 69.9986H49.5587C60.8472 69.9986 69.9986 60.8342 69.9986 49.5296V20.469C70 9.16448 60.8485 0 49.5587 0Z" fill="#FE0000"/>
<path d="M41.0736 33.2318L32.3553 28.4552C31.8541 28.181 31.2616 28.1906 30.7699 28.4825C30.2782 28.7744 29.9854 29.2899 29.9854 29.8614V39.3328C29.9854 39.9016 30.2768 40.4172 30.7658 40.7091C31.0205 40.8618 31.3038 40.9382 31.5871 40.9382C31.8472 40.9382 32.1074 40.8741 32.3457 40.7445L41.0641 36.0498C41.5816 35.7715 41.9044 35.2314 41.9072 34.6435C41.9085 34.0556 41.5898 33.5155 41.0736 33.2318Z" fill="#FE0000"/>
<path d="M55.1866 27.0337L55.1839 27.001C55.1253 26.4404 54.7535 23.5597 53.2457 21.9802C51.4697 20.0871 49.4103 19.8511 48.529 19.7515C48.4637 19.7447 48.4051 19.7379 48.3506 19.7297L48.2349 19.7174C42.9543 19.3328 35.0872 19.2837 35.0068 19.2837H34.9905C34.9129 19.2837 27.0444 19.3342 21.7189 19.7174L21.6045 19.7297C21.5664 19.7352 21.5241 19.7393 21.4792 19.7447L21.4315 19.7502C20.5598 19.8511 18.5168 20.0884 16.7394 22.0457C15.3024 23.6088 14.8897 26.4172 14.8216 26.9724L14.8148 27.0337C14.7848 27.3747 14.522 30.4573 14.522 33.5426V36.4996C14.522 39.5863 14.7848 42.6675 14.8148 43.0126L14.8189 43.0467C14.8775 43.5977 15.2479 46.4225 16.7489 48.0074C18.4296 49.846 20.5748 50.0915 21.6086 50.2102C21.7285 50.2238 21.8796 50.2402 21.9559 50.2539L22.1057 50.2743C25.045 50.5539 34.0017 50.6958 35.0137 50.7121H35.0327H35.06C35.1376 50.7121 43.0115 50.6617 48.2852 50.2784L48.3983 50.2675C48.4582 50.2593 48.5236 50.2525 48.5999 50.2443C49.4688 50.1516 51.5051 49.9361 53.2635 47.9979C54.7045 46.4293 55.1131 43.625 55.1812 43.0699L55.1866 43.0139C55.1894 42.9812 55.4808 39.7418 55.4808 36.4996V33.5426C55.4795 30.3523 55.1975 27.1592 55.1866 27.0337ZM51.6685 33.5453V36.5024C51.6685 39.3681 51.4165 42.3701 51.3934 42.6416C51.2831 43.4845 50.8867 44.9494 50.4495 45.4254C49.6582 46.297 48.8818 46.3802 48.1954 46.4525C48.1095 46.462 48.0278 46.4702 47.9543 46.4798C42.9338 46.8426 35.3378 46.8985 35.0545 46.8999C34.729 46.8944 25.459 46.7539 22.5266 46.4852C22.3659 46.4607 22.1956 46.4402 22.0376 46.4225C21.2095 46.327 20.2697 46.2193 19.5492 45.4254L19.5138 45.3872C19.1066 44.9617 18.717 43.6345 18.6067 42.6566C18.5876 42.4356 18.3302 39.4308 18.3302 36.5024V33.5453C18.3302 30.7083 18.5713 27.8071 18.6053 27.4075C18.7374 26.4118 19.1447 25.0614 19.5492 24.6222C20.3732 23.7152 21.2013 23.6184 21.8687 23.542L21.9137 23.5365C21.9586 23.5311 22.0022 23.5256 22.0444 23.5215C26.9259 23.1724 34.1774 23.1069 34.9891 23.1014H34.9946C35.3133 23.1042 42.8399 23.1573 47.9066 23.5215C47.9665 23.5283 48.0306 23.5365 48.0987 23.5447C48.7892 23.6238 49.65 23.722 50.4754 24.6032L50.4849 24.6127C50.8908 25.0369 51.2817 26.3886 51.392 27.3897C51.4111 27.608 51.6685 30.6428 51.6685 33.5453Z" fill="#FE0000"/>
</svg>
