<svg width="88" height="88" viewBox="0 0 88 88" fill="none" xmlns="http://www.w3.org/2000/svg">
<path d="M79.1487 88H8.84939C3.963 88 0 84.037 0 79.1487V8.84939C0 3.963 3.963 0 8.84939 0H79.1487C84.037 0 87.998 3.963 87.998 8.84939V79.1487C88 84.037 84.037 88 79.1487 88Z" fill="#AE2070"/>
<path d="M45.8049 18.3568C45.8049 21.3359 45.8049 37.5042 45.8049 37.5042H37.2249V19.3856C37.2249 18.1518 36.2253 17.1523 34.9915 17.1523C33.7577 17.1523 32.7582 18.1518 32.7582 19.3856V37.5042H24.391V19.3856C24.391 18.1518 23.3915 17.1523 22.1577 17.1523C20.9239 17.1523 19.9243 18.1518 19.9243 19.3856V37.5042H11.0574V19.2607C11.0574 11.3894 17.5817 8.85345 21.9078 8.85345C26.2339 8.85345 28.4321 10.8389 28.4321 10.8389C29.6386 9.84517 32.0495 8.85345 35.665 8.85345C42.6149 8.8554 45.8049 15.3797 45.8049 18.3568ZM48.4208 23.1105C48.4208 15.1689 54.8807 8.70898 62.8223 8.70898C70.7639 8.70898 77.2238 15.1689 77.2238 23.1105C77.2238 31.0521 70.7639 37.512 62.8223 37.512C54.8807 37.512 48.4208 31.0521 48.4208 23.1105ZM56.6201 23.1105C56.6201 26.5366 59.3981 29.3127 62.8223 29.3127C66.2465 29.3127 69.0245 26.5347 69.0245 23.1105C69.0245 19.6863 66.2465 16.9083 62.8223 16.9083C59.3981 16.9083 56.6201 19.6843 56.6201 23.1105ZM35.665 41.9357C32.0476 41.9357 29.6366 42.9294 28.4321 43.9211C28.4321 43.9211 26.2339 41.9357 21.9078 41.9357C17.5817 41.9357 11.0574 44.4716 11.0574 52.3429V70.5864H19.9224V52.4679C19.9224 51.2341 20.9219 50.2346 22.1557 50.2346C23.3895 50.2346 24.3891 51.2341 24.3891 52.4679V70.5864H32.7562V52.4679C32.7562 51.2341 33.7558 50.2346 34.9896 50.2346C36.2234 50.2346 37.2229 51.2341 37.2229 52.4679V70.5864H45.8029C45.8029 70.5864 45.8029 54.4181 45.8029 51.4391C45.8029 48.46 42.6149 41.9357 35.665 41.9357ZM77.2238 56.1927C77.2238 64.1343 70.7639 70.5942 62.8223 70.5942C54.8807 70.5942 48.4208 64.1343 48.4208 56.1927C48.4208 48.2511 54.8807 41.7912 62.8223 41.7912C70.7639 41.7912 77.2238 48.2511 77.2238 56.1927ZM69.0245 56.1927C69.0245 52.7666 66.2465 49.9905 62.8223 49.9905C59.3981 49.9905 56.6201 52.7685 56.6201 56.1927C56.6201 59.6169 59.3981 62.3949 62.8223 62.3949C66.2465 62.3949 69.0245 59.6169 69.0245 56.1927ZM17.322 75.3713C17.1815 75.2483 17.0136 75.1585 16.8184 75.1019C16.6231 75.0453 16.4103 75.0179 16.18 75.0179C15.8774 75.0179 15.6158 75.0902 15.3952 75.2366C15.1746 75.383 14.9989 75.5509 14.87 75.7402C14.7529 75.4708 14.5811 75.2834 14.3547 75.178C14.1282 75.0726 13.8783 75.0179 13.6031 75.0179C13.318 75.0179 13.0643 75.0804 12.8437 75.2034C12.623 75.3264 12.4337 75.5001 12.2775 75.7246H12.2599V75.137H11.1355V79.4768H12.3283V76.9584C12.3283 76.7456 12.3595 76.5738 12.42 76.443C12.4805 76.3122 12.5547 76.2107 12.6426 76.1404C12.7285 76.0702 12.8183 76.0233 12.912 75.9979C13.0037 75.9725 13.0779 75.9608 13.1345 75.9608C13.3239 75.9608 13.4684 75.994 13.566 76.0565C13.6636 76.1209 13.7339 76.2068 13.7768 76.3122C13.8178 76.4177 13.8432 76.5348 13.849 76.6597C13.8549 76.7866 13.8569 76.9135 13.8569 77.0424V79.4768H15.0497V77.0599C15.0497 76.9252 15.0594 76.7925 15.0789 76.6617C15.0985 76.5309 15.1375 76.4118 15.1961 76.3083C15.2546 76.2049 15.3366 76.1209 15.4401 76.0565C15.5436 75.9921 15.6802 75.9608 15.8481 75.9608C16.016 75.9608 16.1488 75.9882 16.2464 76.0448C16.344 76.1014 16.4182 76.1756 16.4689 76.2712C16.5197 76.3669 16.5509 76.4782 16.5607 76.607C16.5724 76.7359 16.5782 76.8725 16.5782 77.0189V79.4787H17.771V76.5738C17.771 76.2947 17.732 76.0546 17.6539 75.8554C17.5719 75.6543 17.4626 75.4943 17.322 75.3713ZM23.821 76.3649C23.9264 76.648 23.981 76.9623 23.981 77.3098C23.981 77.6573 23.9283 77.9697 23.821 78.2508C23.7155 78.5299 23.5633 78.7701 23.368 78.9692C23.1728 79.1683 22.9366 79.3206 22.6594 79.426C22.3822 79.5314 22.0737 79.5861 21.7321 79.5861C21.3904 79.5861 21.082 79.5334 20.8087 79.426C20.5354 79.3206 20.2992 79.1664 20.1039 78.9692C19.9087 78.7701 19.7564 78.5319 19.651 78.2508C19.5456 77.9716 19.4909 77.6573 19.4909 77.3098C19.4909 76.9623 19.5437 76.648 19.651 76.3649C19.7564 76.0819 19.9087 75.8418 20.1039 75.6426C20.2992 75.4435 20.5354 75.2893 20.8087 75.1819C21.082 75.0726 21.3904 75.0179 21.7321 75.0179C22.0737 75.0179 22.3822 75.0726 22.6594 75.1819C22.9366 75.2912 23.1728 75.4454 23.368 75.6426C23.5633 75.8418 23.7136 76.0819 23.821 76.3649ZM22.7882 77.3098C22.7882 77.1361 22.7707 76.9662 22.7375 76.7983C22.7043 76.6305 22.6457 76.4821 22.5657 76.3532C22.4837 76.2244 22.3744 76.119 22.2377 76.0389C22.1011 75.9569 21.9312 75.9179 21.7301 75.9179C21.5291 75.9179 21.3612 75.9589 21.2265 76.0389C21.0918 76.1209 20.9844 76.2244 20.9024 76.3532C20.8204 76.4821 20.7638 76.6305 20.7306 76.7983C20.6974 76.9662 20.6798 77.1361 20.6798 77.3098C20.6798 77.4836 20.6974 77.6534 20.7306 77.8174C20.7638 77.9814 20.8224 78.1317 20.9024 78.2625C20.9844 78.3933 21.0918 78.4987 21.2265 78.5768C21.3612 78.6549 21.5291 78.6939 21.7301 78.6939C21.9312 78.6939 22.1011 78.6549 22.2377 78.5768C22.3744 78.4987 22.4837 78.3933 22.5657 78.2625C22.6477 78.1317 22.7043 77.9833 22.7375 77.8174C22.7707 77.6515 22.7882 77.4836 22.7882 77.3098ZM29.8806 76.2732C29.9861 76.5621 30.0407 76.9038 30.0407 77.302C30.0407 77.7003 29.988 78.0419 29.8806 78.3308C29.7752 78.6198 29.6366 78.856 29.4648 79.0395C29.295 79.2249 29.1017 79.3616 28.8889 79.4514C28.6761 79.5412 28.4614 79.5861 28.2427 79.5861C27.9245 79.5861 27.6375 79.5353 27.3857 79.4358C27.1339 79.3343 26.9425 79.1644 26.8157 78.9243H26.7981V79.4787H25.6638V73.4854H26.8567V75.668H26.8742C27.0206 75.4435 27.2178 75.2815 27.4657 75.178C27.7156 75.0745 27.9733 75.0218 28.2427 75.0218C28.4614 75.0218 28.6761 75.0667 28.8889 75.1565C29.1017 75.2463 29.293 75.383 29.4648 75.5684C29.6366 75.7539 29.7752 75.9843 29.8806 76.2732ZM28.8479 77.3098C28.8479 77.1244 28.8284 76.9487 28.7893 76.7808C28.7503 76.6129 28.6878 76.4645 28.6039 76.3357C28.5199 76.2068 28.4145 76.1053 28.2896 76.0292C28.1646 75.953 28.0104 75.9159 27.8328 75.9159C27.659 75.9159 27.5087 75.953 27.3798 76.0292C27.251 76.1053 27.1456 76.2068 27.0616 76.3357C26.9777 76.4645 26.9152 76.6129 26.8762 76.7808C26.8371 76.9487 26.8176 77.1244 26.8176 77.3098C26.8176 77.4894 26.8371 77.6632 26.8762 77.8311C26.9152 77.999 26.9777 78.1473 27.0616 78.2762C27.1456 78.405 27.251 78.5065 27.3798 78.5827C27.5087 78.6588 27.659 78.6959 27.8328 78.6959C28.0124 78.6959 28.1646 78.6588 28.2896 78.5827C28.4165 78.5065 28.5199 78.405 28.6039 78.2762C28.6878 78.1473 28.7503 77.999 28.7893 77.8311C28.8284 77.6632 28.8479 77.4894 28.8479 77.3098ZM31.745 79.4748H32.9378V75.1351H31.745V79.4748ZM31.745 74.4635H32.9378V73.4815H31.745V74.4635ZM34.8256 79.4748H36.0184V73.4815H34.8256V79.4748ZM41.9024 76.6304C41.9805 76.9389 42.0078 77.261 41.9863 77.5968H38.855C38.8725 77.9833 38.9701 78.2625 39.1478 78.4362C39.3274 78.61 39.5851 78.6959 39.9209 78.6959C40.161 78.6959 40.3679 78.6354 40.5417 78.5163C40.7154 78.3953 40.8208 78.2684 40.8599 78.1337H41.9102C41.7423 78.6549 41.4846 79.0258 41.1371 79.2503C40.7896 79.4748 40.3699 79.5861 39.8779 79.5861C39.5363 79.5861 39.2278 79.5314 38.9545 79.4221C38.6793 79.3128 38.4489 79.1586 38.2576 78.9555C38.0663 78.7525 37.9199 78.5143 37.8164 78.2332C37.7129 77.954 37.6602 77.6456 37.6602 77.3098C37.6602 76.9858 37.7129 76.6832 37.8203 76.404C37.9257 76.1248 38.078 75.8827 38.2732 75.6778C38.4684 75.4728 38.7027 75.3127 38.974 75.1956C39.2454 75.0784 39.546 75.0199 39.876 75.0199C40.2449 75.0199 40.5671 75.0921 40.8404 75.2346C41.1137 75.3771 41.3401 75.5684 41.5158 75.8105C41.6954 76.0487 41.8243 76.322 41.9024 76.6304ZM40.7935 76.8393C40.7369 76.5367 40.6373 76.3083 40.4948 76.1502C40.3523 75.994 40.1356 75.9159 39.8447 75.9159C39.6554 75.9159 39.4972 75.9491 39.3703 76.0135C39.2435 76.078 39.1439 76.158 39.0678 76.2537C38.9916 76.3493 38.9389 76.4489 38.9077 76.5563C38.8764 76.6617 38.8589 76.7573 38.853 76.8413H40.7935V76.8393ZM53.0749 75.3713C52.9343 75.2483 52.7665 75.1585 52.5712 75.1019C52.376 75.0453 52.1632 75.0179 51.9328 75.0179C51.6303 75.0179 51.3687 75.0902 51.1481 75.2366C50.9275 75.383 50.7518 75.5509 50.6229 75.7402C50.5058 75.4708 50.334 75.2834 50.1075 75.178C49.8811 75.0726 49.6312 75.0179 49.3559 75.0179C49.0709 75.0179 48.8171 75.0804 48.5965 75.2034C48.3759 75.3264 48.1866 75.5001 48.0304 75.7246H48.0128V75.137H46.8883V79.4768H48.0811V76.9584C48.0811 76.7456 48.1124 76.5738 48.1729 76.443C48.2334 76.3122 48.3076 76.2107 48.3954 76.1404C48.4813 76.0702 48.5711 76.0233 48.6648 75.9979C48.7566 75.9725 48.8308 75.9608 48.8874 75.9608C49.0768 75.9608 49.2212 75.994 49.3188 76.0565C49.4165 76.1209 49.4867 76.2068 49.5297 76.3122C49.5707 76.4177 49.5961 76.5348 49.6019 76.6597C49.6078 76.7866 49.6097 76.9135 49.6097 77.0424V79.4768H50.8025V77.0599C50.8025 76.9252 50.8123 76.7925 50.8318 76.6617C50.8513 76.5309 50.8904 76.4118 50.9489 76.3083C51.0075 76.2049 51.0895 76.1209 51.193 76.0565C51.2964 75.9921 51.4331 75.9608 51.601 75.9608C51.7689 75.9608 51.9016 75.9882 51.9992 76.0448C52.0968 76.1014 52.171 76.1756 52.2218 76.2712C52.2725 76.3669 52.3038 76.4782 52.3135 76.607C52.3252 76.7359 52.3311 76.8725 52.3311 77.0189V79.4787H53.5239V76.5738C53.5239 76.2947 53.4849 76.0546 53.4068 75.8554C53.3248 75.6543 53.2155 75.4943 53.0749 75.3713ZM59.5719 76.3649C59.6773 76.648 59.732 76.9623 59.732 77.3098C59.732 77.6573 59.6792 77.9697 59.5719 78.2508C59.4664 78.5299 59.3142 78.7701 59.119 78.9692C58.9237 79.1683 58.6875 79.3206 58.4103 79.426C58.1331 79.5314 57.8246 79.5861 57.483 79.5861C57.1414 79.5861 56.8329 79.5334 56.5596 79.426C56.2863 79.3206 56.0501 79.1664 55.8549 78.9692C55.6596 78.7701 55.5074 78.5319 55.4019 78.2508C55.2965 77.9716 55.2419 77.6573 55.2419 77.3098C55.2419 76.9623 55.2946 76.648 55.4019 76.3649C55.5074 76.0819 55.6596 75.8418 55.8549 75.6426C56.0501 75.4435 56.2863 75.2893 56.5596 75.1819C56.8329 75.0726 57.1414 75.0179 57.483 75.0179C57.8246 75.0179 58.1331 75.0726 58.4103 75.1819C58.6875 75.2912 58.9237 75.4454 59.119 75.6426C59.3142 75.8418 59.4664 76.0819 59.5719 76.3649ZM58.5391 77.3098C58.5391 77.1361 58.5216 76.9662 58.4884 76.7983C58.4552 76.6305 58.3966 76.4821 58.3166 76.3532C58.2346 76.2244 58.1253 76.119 57.9886 76.0389C57.852 75.9569 57.6821 75.9179 57.481 75.9179C57.28 75.9179 57.1121 75.9589 56.9774 76.0389C56.8427 76.1209 56.7353 76.2244 56.6533 76.3532C56.5713 76.4821 56.5147 76.6305 56.4815 76.7983C56.4483 76.9662 56.4308 77.1361 56.4308 77.3098C56.4308 77.4836 56.4483 77.6534 56.4815 77.8174C56.5147 77.9814 56.5733 78.1317 56.6533 78.2625C56.7353 78.3933 56.8427 78.4987 56.9774 78.5768C57.1121 78.6549 57.28 78.6939 57.481 78.6939C57.6821 78.6939 57.852 78.6549 57.9886 78.5768C58.1253 78.4987 58.2346 78.3933 58.3166 78.2625C58.3986 78.1317 58.4552 77.9833 58.4884 77.8174C58.5216 77.6515 58.5391 77.4836 58.5391 77.3098ZM65.1708 75.5099C65.0537 75.3557 64.8917 75.2366 64.6886 75.1487C64.4856 75.0609 64.222 75.0179 63.9038 75.0179C63.652 75.0179 63.406 75.0745 63.1659 75.1897C62.9258 75.3049 62.7286 75.4884 62.5783 75.7402H62.5529V75.1351H61.4187V79.4748H62.6115V77.2005C62.6115 76.7593 62.6837 76.4411 62.8301 76.2478C62.9765 76.0546 63.2108 75.9589 63.5349 75.9589C63.8199 75.9589 64.019 76.0467 64.1303 76.2224C64.2416 76.3981 64.2982 76.6656 64.2982 77.0248V79.4768H65.491V76.8081C65.491 76.5387 65.4676 76.2947 65.4188 76.0741C65.3719 75.8515 65.288 75.6641 65.1708 75.5099ZM71.3418 76.6304C71.4199 76.9389 71.4472 77.261 71.4257 77.5968H68.2944C68.3119 77.9833 68.4095 78.2625 68.5872 78.4362C68.7668 78.61 69.0245 78.6959 69.3603 78.6959C69.6004 78.6959 69.8073 78.6354 69.9811 78.5163C70.1548 78.3953 70.2603 78.2684 70.2993 78.1337H71.3496C71.1817 78.6549 70.924 79.0258 70.5765 79.2503C70.229 79.4748 69.8093 79.5861 69.3173 79.5861C68.9757 79.5861 68.6672 79.5314 68.3939 79.4221C68.1187 79.3128 67.8883 79.1586 67.697 78.9555C67.5057 78.7525 67.3593 78.5143 67.2558 78.2332C67.1523 77.954 67.0996 77.6456 67.0996 77.3098C67.0996 76.9858 67.1523 76.6832 67.2597 76.404C67.3651 76.1248 67.5174 75.8827 67.7126 75.6778C67.9078 75.4728 68.1421 75.3127 68.4135 75.1956C68.6848 75.0784 68.9855 75.0199 69.3154 75.0199C69.6843 75.0199 70.0065 75.0921 70.2798 75.2346C70.5531 75.3771 70.7795 75.5684 70.9552 75.8105C71.1348 76.0487 71.2617 76.322 71.3418 76.6304ZM70.2329 76.8393C70.1763 76.5367 70.0767 76.3083 69.9342 76.1502C69.7917 75.994 69.575 75.9159 69.2841 75.9159C69.0948 75.9159 68.9366 75.9491 68.8098 76.0135C68.6829 76.078 68.5833 76.158 68.5072 76.2537C68.431 76.3493 68.3783 76.4489 68.3471 76.5563C68.3158 76.6617 68.2983 76.7573 68.2924 76.8413H70.2329V76.8393ZM74.8167 78.1083H74.7992L73.8172 75.137H72.5502L74.069 79.2093C74.1022 79.2933 74.1198 79.3831 74.1198 79.4787C74.1198 79.6076 74.0827 79.7247 74.0066 79.8321C73.9304 79.9375 73.8152 80 73.6591 80.0175C73.5419 80.0234 73.4248 80.0195 73.3057 80.0097C73.1886 79.998 73.0734 79.9863 72.9621 79.9765V80.9585C73.0851 80.9702 73.2061 80.98 73.3272 80.9878C73.4482 80.9956 73.5693 80.9995 73.6922 80.9995C74.1003 80.9995 74.4204 80.9234 74.6488 80.773C74.8772 80.6227 75.0568 80.3709 75.1857 80.0175L76.9993 75.1409H75.7655L74.8167 78.1083Z" fill="white"/>
</svg>
