<svg width="89" height="86" viewBox="0 0 89 86" fill="none" xmlns="http://www.w3.org/2000/svg">
<path d="M1.96288 2.77295C1.59902 2.77295 1.30469 3.06837 1.30469 3.43357V49.2793C1.30469 49.6445 1.59902 49.9399 1.96288 49.9399H38.7846V2.77295H1.96288Z" fill="#95D6A4"/>
<path d="M87.0321 2.77295H50.2104V49.9423H87.0321C87.396 49.9423 87.6903 49.6468 87.6903 49.2816V3.43357C87.6926 3.06837 87.396 2.77295 87.0321 2.77295Z" fill="#95D6A4"/>
<path d="M38.7846 8.01123H14.2276C14.0375 8.01123 13.8776 8.1601 13.8683 8.35085C13.6968 12.1564 10.6539 15.2106 6.86229 15.3827C6.67225 15.392 6.52393 15.5526 6.52393 15.7433V36.9716C6.52393 37.1623 6.67225 37.3228 6.86229 37.3321C10.6539 37.5043 13.6968 40.5585 13.8683 44.364C13.8753 44.5548 14.0375 44.7036 14.2276 44.7036H38.7846V8.01123Z" fill="#CCF49F"/>
<path d="M82.1328 15.3827C78.3412 15.2106 75.2982 12.1564 75.1267 8.35085C75.1175 8.1601 74.9576 8.01123 74.7675 8.01123H50.2104V44.7013H74.7698C74.9599 44.7013 75.1198 44.5525 75.1291 44.3594C75.3006 40.5538 78.3435 37.5019 82.1351 37.3275C82.3251 37.3182 82.4735 37.1577 82.4735 36.9669V15.7433C82.4711 15.5526 82.3228 15.392 82.1328 15.3827Z" fill="#CCF49F"/>
<path d="M13.0039 41.2144C13.5091 42.1588 13.8174 43.2288 13.8684 44.3639C13.8753 44.5547 14.0375 44.7035 14.2276 44.7035H38.7847V41.2144H13.0039Z" fill="#B3E59F"/>
<path d="M82.1327 15.3827C78.3411 15.2106 75.2981 12.1564 75.1266 8.35085C75.1174 8.1601 74.9574 8.01123 74.7674 8.01123H69.0383C70.2296 10.2327 72.5194 11.7726 75.1799 11.8935C75.37 11.9029 75.5183 12.0634 75.5183 12.2541V28.6696C75.5183 31.2237 74.1023 33.5289 71.889 34.792C70.7371 35.4503 69.7777 36.411 69.1218 37.5694C67.8633 39.7909 65.5666 41.2121 63.0219 41.2121H50.208V44.7013H74.7651C74.9574 44.7013 75.115 44.5525 75.1243 44.3617C75.2958 40.5562 78.3388 37.5043 82.1304 37.3298C82.3204 37.3205 82.4687 37.16 82.4687 36.9693V15.7433C82.471 15.5526 82.3227 15.392 82.1327 15.3827Z" fill="#B3E59F"/>
<path d="M21.9221 28.6165H14.682C13.9427 28.6165 13.3447 28.0163 13.3447 27.2743V25.4413C13.3447 24.6993 13.945 24.0991 14.682 24.0991H21.9221C22.6614 24.0991 23.2593 24.7016 23.2593 25.4413V27.2743C23.257 28.014 22.6591 28.6165 21.9221 28.6165Z" fill="#95D6A4"/>
<path d="M67.0731 28.6165H74.3132C75.0525 28.6165 75.6504 28.0163 75.6504 27.2743V25.4413C75.6504 24.6993 75.0502 24.0991 74.3132 24.0991H67.0731C66.3338 24.0991 65.7358 24.7016 65.7358 25.4413V27.2743C65.7358 28.014 66.3361 28.6165 67.0731 28.6165Z" fill="#95D6A4"/>
<path d="M50.2103 49.9425H38.7847V1.73109C38.7847 1.49848 38.9724 1.31006 39.2041 1.31006H49.7885C50.0203 1.31006 50.208 1.49848 50.208 1.73109L50.2103 49.9425Z" fill="#F4D8BC"/>
<path d="M38.7847 13.606C33.9409 15.7948 30.5688 20.6797 30.5688 26.3578C30.5688 32.0359 33.9409 36.9208 38.7847 39.1097V13.606Z" fill="#95D6A4"/>
<path d="M50.2104 13.606V39.1097C55.0542 36.9208 58.4263 32.0359 58.4263 26.3578C58.4263 20.6797 55.0519 15.7948 50.2104 13.606Z" fill="#95D6A4"/>
<path d="M50.2103 49.9419H38.7847V66.6854C38.7847 66.918 38.9724 67.1064 39.2041 67.1064H49.7885C50.0203 67.1064 50.208 66.918 50.208 66.6854L50.2103 49.9419Z" fill="#FFF0AF"/>
<path d="M38.7846 49.9424H1.96288C1.59902 49.9424 1.30469 49.6469 1.30469 49.2817V64.9831C1.30469 65.3483 1.59902 65.6438 1.96288 65.6438H38.7846V49.9424Z" fill="#78C2A4"/>
<path d="M87.0321 49.9424H50.2104V65.6438H87.0321C87.396 65.6438 87.6903 65.3483 87.6903 64.9831V49.2817C87.6926 49.6469 87.396 49.9424 87.0321 49.9424Z" fill="#78C2A4"/>
<path d="M12.0398 25.441V27.274C12.0398 28.7348 13.2241 29.9234 14.6818 29.9234H21.9219C23.3774 29.9234 24.5617 28.7348 24.5617 27.274V25.441C24.5617 23.9802 23.3774 22.7915 21.9219 22.7915H14.6818C13.2241 22.7915 12.0398 23.9802 12.0398 25.441ZM21.9544 25.441V27.274C21.9544 27.2926 21.9405 27.3065 21.9219 27.3065H14.6818C14.6633 27.3065 14.6471 27.2902 14.6471 27.274V25.441C14.6471 25.4224 14.6633 25.4084 14.6818 25.4084H21.9219C21.9405 25.4084 21.9544 25.4224 21.9544 25.441Z" fill="black"/>
<path d="M76.9552 27.274V25.441C76.9552 23.9802 75.7709 22.7915 74.3132 22.7915H67.0731C65.6176 22.7915 64.4333 23.9802 64.4333 25.441V27.274C64.4333 28.7348 65.6176 29.9234 67.0731 29.9234H74.3132C75.7709 29.9234 76.9552 28.7348 76.9552 27.274ZM67.0406 27.274V25.441C67.0406 25.4224 67.0545 25.4084 67.0731 25.4084H74.3132C74.3317 25.4084 74.3456 25.4247 74.3456 25.441V27.274C74.3456 27.2926 74.3317 27.3065 74.3132 27.3065H67.0731C67.0545 27.3065 67.0406 27.2902 67.0406 27.274Z" fill="black"/>
<path d="M87.0321 1.46314H51.492C51.3645 0.635034 50.6507 0 49.7909 0H39.2065C38.3467 0 37.6305 0.635034 37.5031 1.46314H1.96299C0.88068 1.46314 0 2.34707 0 3.43337V64.9805C0 66.0668 0.88068 66.9507 1.96299 66.9507H37.5031C37.6305 67.7789 38.3467 68.4139 39.2065 68.4139H49.7909C50.6507 68.4139 51.3668 67.7789 51.4943 66.9507H87.0344C88.1167 66.9507 88.9974 66.0668 88.9974 64.9805V3.43337C88.995 2.34707 88.1144 1.46314 87.0321 1.46314ZM51.5128 15.8224C54.973 18.1485 57.1214 22.0913 57.1214 26.3574C57.1214 30.6235 54.973 34.5663 51.5128 36.8925V15.8224ZM51.5128 39.9281C56.5304 37.3112 59.7287 32.075 59.7287 26.3574C59.7287 20.6398 56.5304 15.4036 51.5128 12.7868V9.32081H73.9122C74.4731 13.0985 77.4048 16.041 81.1663 16.6039V36.1132C77.4025 36.6761 74.4708 39.6187 73.9122 43.3963H51.5128V39.9281ZM48.9056 2.6169V48.6348H40.0872C40.0872 45.5085 40.0872 36.5435 40.0872 32.4961C40.0872 31.7726 39.5031 31.1888 38.7847 31.1888C38.0639 31.1888 37.4822 31.7726 37.4822 32.4961V36.8925C34.0221 34.5663 31.8737 30.6235 31.8737 26.3574C31.8737 22.0913 34.0197 18.1485 37.4822 15.8224V26.39C37.4822 27.1134 38.0662 27.6973 38.7847 27.6973C39.5055 27.6973 40.0872 27.1111 40.0872 26.39C40.0872 25.9154 40.0872 5.84325 40.0872 2.6169H48.9056ZM2.60728 4.08004H37.4822V6.70159H26.5989C25.8781 6.70159 25.2964 7.28777 25.2964 8.00887C25.2964 8.7323 25.8781 9.31616 26.5989 9.31616H37.4822V12.7821C32.4646 15.399 29.2664 20.6351 29.2664 26.3528C29.2664 32.0704 32.4646 37.3065 37.4822 39.9234V43.3894H15.0828C14.522 39.6117 11.5902 36.6692 7.82647 36.1062V16.6039C11.5902 16.041 14.522 13.0985 15.0828 9.32081H20.5129C21.2313 9.32081 21.8154 8.73463 21.8154 8.01353C21.8154 7.2901 21.2313 6.70624 20.5129 6.70624H14.2276C13.3354 6.70624 12.6053 7.40408 12.5659 8.29499C12.4222 11.4469 9.94705 13.9335 6.80209 14.0754C5.91446 14.115 5.21919 14.8477 5.21919 15.7433V36.9715C5.21919 37.8648 5.91446 38.5975 6.80209 38.6394C9.94473 38.7813 12.4222 41.2679 12.5636 44.4222C12.6053 45.3131 13.333 46.0109 14.2253 46.0109H37.4799V48.6325H2.60728V4.08004ZM2.60728 51.2494H37.4822V53.8663H5.65026C4.92949 53.8663 4.34778 54.4524 4.34778 55.1735C4.34778 55.897 4.93181 56.4808 5.65026 56.4808H37.4822V59.0977H5.65026C4.92949 59.0977 4.34778 59.6839 4.34778 60.405C4.34778 61.1284 4.93181 61.7123 5.65026 61.7123H37.4822V64.3292H2.60728V51.2494ZM40.0895 65.7993C40.0895 65.6504 40.0895 51.6262 40.0895 51.2517H48.9079V65.7993H40.0895ZM51.5128 64.3338V61.7169H83.3448C84.0656 61.7169 84.6473 61.1308 84.6473 60.4097C84.6473 59.6862 84.0632 59.1024 83.3448 59.1024H51.5128V56.4855H83.3448C84.0656 56.4855 84.6473 55.8993 84.6473 55.1782C84.6473 54.4548 84.0632 53.8709 83.3448 53.8709H51.5128V51.254H64.3012C65.0197 51.254 65.6037 50.6678 65.6037 49.9467C65.6037 49.2233 65.0197 48.6394 64.3012 48.6394H51.5128V46.0109H74.7674C75.6597 46.0109 76.3897 45.3131 76.4291 44.4222C76.5705 41.2679 79.048 38.7813 82.1906 38.6394C83.0783 38.5998 83.7735 37.8671 83.7735 36.9715V15.7433C83.7735 14.85 83.0783 14.1173 82.1906 14.0754C79.048 13.9335 76.5705 11.4469 76.4291 8.29266C76.3874 7.40175 75.6597 6.70391 74.7674 6.70391H51.5128V4.08004H86.3878V48.6325H70.3872C69.6664 48.6325 69.0847 49.2186 69.0847 49.9397C69.0847 50.6632 69.6687 51.247 70.3872 51.247H86.3878V64.3315H51.5128V64.3338Z" fill="black"/>
<path d="M9 73.7509V71.8374H17.4416V73.7509H14.3536V82.1833H12.088V73.7509H9Z" fill="black"/>
<path d="M20.8921 71.8403V82.1829H18.6265V71.8403H20.8921Z" fill="black"/>
<path d="M30.4784 72.8681V74.7075L25.1516 74.7378V76.52H30.0286V78.2583H25.1516V80.3436H30.5925V82.1831H22.886V72.8681H30.4784ZM25.8599 69.9843L24.2722 72.0427H25.8162L26.7393 70.8703L27.6354 72.0427H29.3238L27.7361 69.9843H25.8599ZM29.5822 68L31.1128 70.5637H29.6829L27.33 68H29.5822Z" fill="black"/>
<path d="M34.7647 71.8403L39.0644 78.7803H39.0946V71.8403H41.2159V82.1829H38.9502L34.664 75.2598H34.6338V82.1829H32.5125V71.8403H34.7647Z" fill="black"/>
<path d="M50.4094 71.8403L52.8194 78.9521H52.8496L55.1286 71.8403H58.3173V82.1829H56.196V74.8521H56.1658L53.6417 82.1829H51.8963L49.3722 74.9262H49.342V82.1829H47.2207V71.8403H50.4094Z" fill="black"/>
<path d="M65.7084 71.8407L69.5617 82.1832H67.2087L66.43 79.8789H62.5768L61.7678 82.1832H59.4888L63.3857 71.8407H65.7084ZM63.0232 68.5796H62.1001C62.2143 69.9912 62.9762 70.6953 64.3792 70.6953C65.1009 70.6953 65.6849 70.5302 66.1313 70.2034C66.5777 69.8766 66.8496 69.3342 66.9469 68.5796H66.0373C65.9501 68.9468 65.7722 69.2096 65.5036 69.3679C65.2351 69.5262 64.8827 69.6071 64.4497 69.6071C64.3054 69.6071 64.1543 69.5903 64.0033 69.5566C63.8489 69.5229 63.7012 69.4656 63.5636 69.3814C63.4226 69.3005 63.3051 69.1927 63.2111 69.0613C63.1138 68.9367 63.0534 68.775 63.0232 68.5796ZM65.8393 78.1843L64.5403 74.3876H64.5101L63.1675 78.1843H65.8393ZM63.6139 85.0805H65.4466V83.3994H63.6139V85.0805Z" fill="black"/>
<path d="M69.9209 73.7509V71.8374H78.3626V73.7509H75.2745V82.1833H73.0089V73.7509H69.9209Z" fill="black"/>
</svg>
