<svg width="167" height="38" viewBox="0 0 167 38" fill="none" xmlns="http://www.w3.org/2000/svg">
<path d="M47.8397 0.000773347C47.8999 0.0997618 47.9509 0.204937 48.0212 0.296192C53.8144 7.77137 59.6093 15.245 65.4049 22.7178C65.4821 22.8168 65.5647 22.9112 65.6906 23.062C65.7153 22.9151 65.7369 22.8408 65.7377 22.7658C65.7415 22.3753 65.7392 21.9839 65.7392 21.5934C65.7392 16.0384 65.7322 10.4843 65.7469 4.92932C65.7492 4.16447 65.574 3.48316 65.1462 2.8552C64.6204 2.08262 64.1038 1.30232 63.5842 0.525103C63.5062 0.408327 63.4313 0.289232 63.3618 0.180963C63.3796 0.148483 63.3834 0.136109 63.3912 0.127602C63.3981 0.119095 63.4089 0.109042 63.4182 0.109042C66.824 0.104402 70.2307 0.0997618 73.6365 0.0974418C73.6682 0.0974418 73.6998 0.115229 73.7639 0.133789C73.6983 0.233551 73.6481 0.321712 73.5871 0.402141C72.8837 1.32474 72.1911 2.25585 71.4699 3.16376C71.1124 3.61308 70.9572 4.09333 70.958 4.66792C70.9665 15.4809 70.9642 26.2946 70.9642 37.1075C70.9642 37.2599 70.9642 37.4122 70.9642 37.6203C70.66 37.5808 70.3843 37.5506 70.1102 37.5097C68.7049 37.2978 67.3228 36.9907 65.9901 36.485C63.6297 35.5887 61.6909 34.1116 60.1328 32.1411C58.4156 29.9688 56.7315 27.7694 55.0352 25.5792C51.8169 21.4248 48.5995 17.2696 45.3813 13.1144C45.3102 13.0232 45.2322 12.9366 45.1249 12.8089C45.0956 12.9134 45.0701 12.9721 45.0639 13.0324C45.0554 13.1144 45.0616 13.1979 45.0616 13.2807C45.0616 19.5224 45.0616 25.7641 45.0616 32.0057C45.0616 32.0885 45.0639 32.1712 45.0616 32.2548C45.0492 32.7358 45.1967 33.1542 45.4955 33.5362C46.2252 34.4681 46.9394 35.4116 47.6598 36.3512C47.7308 36.444 47.7972 36.5407 47.8598 36.6273C47.8443 36.6559 47.8405 36.6675 47.8335 36.676C47.8266 36.6845 47.8165 36.6969 47.8073 36.6969C44.413 36.7031 41.0187 36.7077 37.6245 36.7123C37.5804 36.7123 37.5364 36.6992 37.4461 36.6837C37.5164 36.5615 37.5681 36.461 37.6291 36.3674C38.1827 35.5137 38.7301 34.6552 39.2969 33.81C39.6868 33.2284 39.8474 32.6066 39.8459 31.9029C39.8351 23.0202 39.8381 14.1376 39.8428 5.25489C39.8428 5.0082 39.788 4.79862 39.6575 4.58827C38.7911 3.19006 37.9318 1.78721 37.0747 0.38358C37.0029 0.266031 36.9627 0.128376 36.9087 0C40.5524 0.000773347 44.196 0.000773347 47.8397 0.000773347Z" fill="#ED3237"/>
<path d="M11.2144 0.000976562C12.2776 3.04951 13.3408 6.09805 14.4025 9.14735C16.4572 15.0441 18.511 20.9417 20.5664 26.8384C20.6112 26.9676 20.6668 27.0936 20.7502 27.3025C20.8374 27.0882 20.8938 26.9622 20.9401 26.8323C23.3801 19.992 25.8184 13.151 28.2576 6.31072C28.4082 5.88769 28.5471 5.45926 28.7108 5.04088C28.9664 4.38663 28.9564 3.74243 28.6537 3.11293C28.2483 2.27075 27.8267 1.43708 27.4129 0.599547C27.3411 0.454158 27.2724 0.307995 27.1704 0.0953249C29.9686 0.0945516 32.7043 0.0953249 35.4955 0.0945516C35.4608 0.259275 35.4453 0.383783 35.4075 0.500559C34.9103 2.01787 34.4261 3.53904 33.9073 5.04861C30.5555 14.8144 27.1967 24.5787 23.8402 34.343C23.5252 35.2602 23.2117 36.1782 22.8959 37.0953C22.8581 37.2059 22.811 37.3142 22.7647 37.431C22.6635 37.431 22.5678 37.4472 22.4798 37.4287C20.1873 36.936 17.996 36.1782 16.0085 34.9029C14.3917 33.8658 13.0189 32.5883 12.0784 30.8854C11.5101 29.856 11.0816 28.7664 10.6677 27.6706C7.5437 19.3934 4.42661 11.1132 1.29023 2.84071C0.964389 1.97997 0.528136 1.16177 0.143616 0.324236C0.0941997 0.21674 0.047872 0.108472 0 0.000976562C3.73788 0.000976562 7.47652 0.000976562 11.2144 0.000976562Z" fill="#ED3237"/>
<path d="M107.839 36.489C104.461 36.489 101.156 36.489 97.7993 36.489C97.8858 36.39 97.9437 36.3243 98.0016 36.2586C98.4711 35.7265 98.9621 35.2122 99.403 34.6577C99.8833 34.053 100.234 33.3701 100.487 32.6339C103.583 23.6314 106.68 14.6296 109.793 5.6317C110.15 4.60006 110.2 3.57615 109.967 2.52439C109.858 2.031 109.628 1.59174 109.354 1.1749C109.16 0.879485 108.957 0.588707 108.756 0.294061C109.038 0.209766 120.19 0.171099 121.443 0.24998C121.495 0.370623 121.559 0.506732 121.612 0.647481C123.557 5.86757 125.501 11.0877 127.444 16.3085C129.351 21.4289 131.256 26.5507 133.164 31.6711C133.469 32.4893 133.943 33.21 134.472 33.896C135.139 34.7621 135.913 35.527 136.715 36.2655C136.806 36.3498 136.897 36.4341 137.038 36.5656C131.71 36.5656 126.463 36.5656 121.176 36.5656C121.25 36.4875 121.306 36.421 121.37 36.3645C122.424 35.4334 122.939 34.2595 122.968 32.8574C122.986 32.0059 122.848 31.1877 122.546 30.3904C121.976 28.8863 121.424 27.3751 120.859 25.8694C120.718 25.4944 120.814 25.4549 120.25 25.4549C117.577 25.4549 114.904 25.4549 112.23 25.4549C111.166 25.4549 110.102 25.4541 109.037 25.4557C108.637 25.4565 108.635 25.4596 108.516 25.8331C107.886 27.792 107.249 29.7485 106.629 31.7105C106.083 33.442 106.445 34.9771 107.67 36.3112C107.71 36.3529 107.75 36.3947 107.839 36.489ZM118.914 20.753C118.832 20.3222 114.648 9.14502 114.462 8.89291C114.407 9.03366 114.359 9.14657 114.318 9.26257C113.953 10.2989 113.589 11.3359 113.226 12.373C112.298 15.0155 111.372 17.658 110.446 20.3013C110.394 20.4498 110.36 20.6053 110.317 20.7591C110.714 20.8411 118.608 20.8318 118.914 20.753Z" fill="#0F62AC"/>
<path d="M89.6651 21.1327C89.7338 21.0801 89.7578 21.0561 89.7863 21.0406C91.6665 20.0175 92.8942 18.4422 93.5837 16.4446C94.5403 13.6714 94.416 10.9299 93.2015 8.25334C92.8455 7.46916 92.3514 6.77779 91.6696 6.23568C91.0287 5.72604 90.3044 5.44841 89.479 5.44531C89.0652 5.44377 88.6521 5.41979 88.2382 5.41206C88.124 5.40974 88.0097 5.42985 87.8553 5.44299C87.8553 5.60076 87.8553 5.72759 87.8553 5.85519C87.8553 14.7247 87.8568 23.595 87.8522 32.4645C87.8522 32.9309 87.9688 33.3477 88.2089 33.7429C88.72 34.5858 89.3408 35.3468 89.9647 36.1054C90.0543 36.2137 90.1415 36.3243 90.235 36.4403C89.9624 36.5285 77.4277 36.5648 76.4949 36.4836C76.5845 36.363 76.6563 36.2624 76.732 36.165C77.2562 35.4899 77.7257 34.7822 78.0685 33.9942C78.2785 33.5109 78.3874 33.0136 78.3866 32.48C78.3805 22.9114 78.3797 13.3427 78.3874 3.77411C78.3882 3.08815 78.199 2.47953 77.7504 1.9784C77.3335 1.51284 76.8617 1.09601 76.4131 0.659068C76.3065 0.555439 76.1961 0.454904 76.0239 0.294048C76.2255 0.279354 76.3366 0.265434 76.4486 0.264661C78.2461 0.253834 80.0436 0.238367 81.8411 0.236047C85.8385 0.231407 89.8365 0.245327 93.8338 0.229087C98.5886 0.209753 102.535 3.57149 103.488 7.91693C103.619 8.51473 103.704 9.13186 103.728 9.74281C103.76 10.5339 103.745 11.3305 103.688 12.1201C103.536 14.2375 102.716 16.0835 101.296 17.6495C99.6526 19.4622 97.5964 20.5233 95.1828 20.8798C94.6237 20.9625 94.0539 20.9919 93.4887 21.0143C92.2348 21.0646 90.9824 21.0932 89.6651 21.1327Z" fill="#0F62AC"/>
<path d="M155.752 36.5651C150.884 36.5651 146.087 36.5651 141.247 36.5651C141.318 36.4514 141.367 36.3617 141.425 36.2805C141.963 35.5443 142.497 34.8058 143.045 34.0773C143.195 33.8762 143.258 33.6744 143.255 33.4238C143.221 30.4982 143.187 27.5734 143.169 24.6478C143.159 23.1197 143.17 21.5916 143.19 20.0642C143.194 19.751 143.116 19.5004 142.937 19.2452C140.083 15.1604 137.236 11.071 134.387 6.98227C133.143 5.19507 131.904 3.40322 130.646 1.62607C130.431 1.32137 130.135 1.07312 129.867 0.80632C129.694 0.632317 129.507 0.471461 129.274 0.258017C129.441 0.24719 129.541 0.234043 129.64 0.234043C133.533 0.23327 137.424 0.23559 141.317 0.227856C141.575 0.227083 141.716 0.317564 141.849 0.532555C144.529 4.90042 147.216 9.26365 149.903 13.6269C149.981 13.7545 150.065 13.879 150.166 14.0337C150.485 13.7846 150.797 13.5967 151.007 13.2851C152.69 10.7802 154.376 8.27686 156.056 5.76889C156.463 5.16181 156.732 4.49905 156.819 3.76515C156.968 2.51464 156.554 1.46057 155.719 0.551889C155.64 0.466047 155.536 0.403406 155.417 0.309058C155.722 0.218576 166.334 0.189189 167 0.264977C166.926 0.387166 166.869 0.494661 166.8 0.592876C165.677 2.19061 164.552 3.78757 163.428 5.38454C160.163 10.02 156.9 14.6554 153.63 19.2878C153.464 19.5221 153.389 19.7556 153.389 20.0426C153.392 24.4723 153.39 28.902 153.379 33.3318C153.379 33.6241 153.459 33.8476 153.65 34.068C154.284 34.8019 154.902 35.5513 155.527 36.2945C155.588 36.3664 155.647 36.4391 155.752 36.5651Z" fill="#0F62AC"/>
</svg>
